<svg width="32" height="32" viewBox="0 0 32 32" fill="none" xmlns="http://www.w3.org/2000/svg">
<path d="M14.6528 28.2989C14.5824 28.2989 14.519 28.2573 14.4902 28.1933C14.4621 28.1293 14.4742 28.0544 14.521 28.0026C14.521 28.0026 24.0915 17.4432 25.456 15.9379C25.6211 15.7555 25.6416 15.4848 25.5053 15.2794L19.9462 6.9165C19.8803 6.8173 19.7696 6.75778 19.6499 6.75778L10.9939 6.87618C10.8992 6.87618 10.823 6.80642 10.8147 6.71362C10.8064 6.61954 10.8685 6.53954 10.9613 6.52354C12.8186 6.20482 17.4477 5.2525 20.8506 4.51586C20.8666 4.51202 20.8838 4.51074 20.9005 4.51074C20.9638 4.51074 21.0234 4.53634 21.0682 4.58178C21.92 5.46242 29.4234 13.2371 30.6016 15.0183C30.8339 15.3696 30.8563 15.7485 30.6605 16.032C29.3568 17.9245 24.4288 25.0624 22.3706 28.0435C22.2598 28.2035 22.0774 28.2995 21.8829 28.2995H14.6528V28.2989Z" fill="#015351"/>
<path d="M14.3941 25.2096C14.2956 25.2096 14.2156 25.1296 14.2156 25.0317V8.89085C14.2156 8.76029 14.3218 8.65405 14.4524 8.65405H18.9004C18.9964 8.65405 19.0821 8.71165 19.1193 8.79997C19.1564 8.88893 19.1359 8.99069 19.0674 9.05917C15.717 12.4057 16.6335 16.6637 17.9641 21.0982C18.0005 21.2198 17.9711 21.3485 17.886 21.4419C16.7711 22.672 15.6345 23.9257 14.5247 25.1507C14.4908 25.1885 14.4441 25.2089 14.3935 25.2089L14.3941 25.2096Z" fill="#FD7D00"/>
<path d="M10.8326 25.3928C10.7737 25.3928 10.7206 25.3646 10.6873 25.316L3.56028 15.0222C3.49692 14.9307 3.50524 14.8097 3.58012 14.7272L9.02076 8.7694C9.08796 8.6958 9.18332 8.65356 9.28316 8.65356H10.8377C10.9356 8.65356 11.0156 8.73356 11.0156 8.83148L11.0112 25.2148C11.0112 25.3128 10.9312 25.3928 10.8326 25.3928Z" fill="#FD7D00"/>
<path d="M2.36664 13.1367C2.30776 13.1367 2.25272 13.1079 2.22008 13.0593L1.07832 11.3895C1.01624 11.298 1.02455 11.1777 1.09879 11.0958L8.5676 2.91977C8.65144 2.82825 8.76024 2.76553 8.88184 2.73993L17.3522 0.93321C17.3926 0.92425 17.4342 0.92041 17.4758 0.92041C17.6422 0.92041 17.8022 0.99081 17.9142 1.11433L19.3234 2.66377C19.3663 2.71113 19.3804 2.77769 19.3612 2.83785C19.342 2.89801 19.2908 2.94409 19.2294 2.95689L10.1183 4.89993C9.99672 4.92617 9.88792 4.98825 9.80408 5.07977L2.49784 13.0785C2.46456 13.115 2.41656 13.1361 2.36664 13.1361V13.1367Z" fill="#FD7D00"/>
<path d="M11.6452 31.1367C11.6401 31.1367 11.6356 31.1341 11.6331 31.1297L11.0942 30.1953C11.0916 30.1908 11.0916 30.1857 11.0942 30.1812L11.6337 29.2468C11.6363 29.2423 11.6408 29.2397 11.6459 29.2397H12.7505C12.7556 29.2397 12.7601 29.2423 12.7627 29.2468L13.3016 30.1812C13.3041 30.1857 13.3041 30.1908 13.3016 30.1953L12.762 31.1297C12.7595 31.1341 12.755 31.1367 12.7499 31.1367H11.6452Z" fill="#FD7D00"/>
<path d="M13.3772 31.1367L13.8566 30.3066C13.8988 30.2337 13.8988 30.1428 13.8566 30.0698L13.3772 29.2397H21.3535L20.1593 30.9818C20.0927 31.0785 19.9833 31.1361 19.8662 31.1361H13.3772V31.1367Z" fill="#015351"/>
<path d="M18.9013 8.77245C19.0075 8.77245 19.0593 8.90045 18.9845 8.97533C15.4849 12.4704 16.6312 17.0649 17.8517 21.1321C17.876 21.2128 17.8561 21.2998 17.7998 21.3625C16.6849 22.5926 15.5483 23.8464 14.4379 25.0713C14.4257 25.0848 14.4104 25.0905 14.3944 25.0905C14.3643 25.0905 14.3349 25.0668 14.3349 25.031V8.89084C14.3349 8.82556 14.388 8.77245 14.4533 8.77245H18.9013ZM18.9013 8.53564H14.4533C14.2574 8.53564 14.0974 8.695 14.0974 8.89148V25.0323C14.0974 25.1961 14.2305 25.3286 14.3944 25.3286C14.4776 25.3286 14.5569 25.2934 14.6133 25.2313C15.723 24.0064 16.8597 22.7526 17.9752 21.5225C18.0865 21.3996 18.1262 21.2243 18.0789 21.0649C16.7592 16.6662 15.8485 12.4441 19.1521 9.14364C19.2545 9.04124 19.2853 8.88893 19.2296 8.75517C19.1745 8.62205 19.0459 8.53564 18.9013 8.53564Z" fill="#015351"/>
<path d="M10.8379 8.77235C10.8705 8.77235 10.8974 8.79859 10.8974 8.83187L10.8929 25.2152C10.8929 25.2517 10.8635 25.2748 10.8328 25.2748C10.8149 25.2748 10.7969 25.2671 10.7848 25.2492L3.65774 14.9541C3.62638 14.9087 3.63022 14.8472 3.66798 14.8069L9.10862 8.84915C9.15342 8.79987 9.21678 8.77171 9.28334 8.77171H10.8379M10.8379 8.53491H9.28334C9.15022 8.53491 9.02286 8.59123 8.93326 8.68915L3.49326 14.6469C3.38062 14.7698 3.36846 14.9522 3.46318 15.0892L10.5902 25.3829C10.6459 25.4629 10.7368 25.5109 10.8334 25.5109C10.9973 25.5109 11.1304 25.3778 11.1304 25.2146L11.1349 8.83123C11.1349 8.75187 11.1041 8.67763 11.0478 8.62195C10.9921 8.56627 10.9173 8.53491 10.8385 8.53491H10.8379Z" fill="#015351"/>
<path d="M17.4759 1.03871C17.6077 1.03871 17.7357 1.09375 17.8266 1.19359L19.2359 2.74303C19.2666 2.77695 19.2493 2.83135 19.2045 2.84095L10.0935 4.78399C9.94819 4.81471 9.81699 4.89023 9.71651 4.99967L2.41027 12.9984C2.39875 13.0112 2.38275 13.0176 2.36675 13.0176C2.34819 13.0176 2.32963 13.0086 2.31811 12.992L1.17635 11.3222C1.14499 11.2768 1.14947 11.216 1.18659 11.1757L8.65474 2.99967C8.7213 2.92671 8.80898 2.87615 8.90562 2.85567L17.3767 1.04895C17.4093 1.04191 17.4426 1.03871 17.4759 1.03871ZM17.4759 0.801909C17.4259 0.801909 17.376 0.80703 17.3274 0.81727L8.85634 2.62399C8.71042 2.65535 8.5805 2.72959 8.47938 2.83967L1.01123 11.0157C0.899225 11.1379 0.886425 11.319 0.980505 11.456L2.12227 13.1257C2.17731 13.2064 2.26883 13.255 2.36675 13.255C2.44995 13.255 2.52931 13.2198 2.58563 13.1584L9.89251 5.15903C9.95971 5.08543 10.0461 5.03615 10.1434 5.01503L19.2544 3.07199C19.3581 3.05023 19.4426 2.97343 19.4746 2.87295C19.5072 2.77247 19.4829 2.66111 19.4119 2.58303L18.0026 1.03359C17.8682 0.885749 17.6762 0.80127 17.4765 0.80127L17.4759 0.801909Z" fill="#015351"/>
<path d="M12.6892 29.3594L13.1679 30.1888L12.6892 31.0182H11.7055L11.2268 30.1888L11.7055 29.3594H12.6892ZM12.7494 29.1226H11.6447C11.5974 29.1226 11.5539 29.1475 11.5302 29.1885L10.9907 30.1229C10.967 30.1638 10.967 30.2144 10.9907 30.2554L11.5302 31.1898C11.5539 31.2307 11.5974 31.2557 11.6447 31.2557H12.7494C12.7967 31.2557 12.8403 31.2307 12.8639 31.1898L13.4035 30.2554C13.4271 30.2144 13.4271 30.1638 13.4035 30.1229L12.8639 29.1885C12.8403 29.1475 12.7967 29.1226 12.7494 29.1226Z" fill="#015351"/>
<path d="M21.1283 29.3594L20.0614 30.9158C20.0173 30.9805 19.9443 31.0189 19.8662 31.0189H13.5827L13.9078 30.4557L13.959 30.3667C14.0217 30.2573 14.0217 30.1216 13.959 30.0122L13.9078 29.9232L13.5827 29.36H21.1289M21.3536 29.1232H13.3773C13.2857 29.1232 13.2288 29.2218 13.2749 29.3011L13.7024 30.0416L13.7536 30.1306C13.7747 30.167 13.7747 30.2125 13.7536 30.249L13.7024 30.3379L13.2749 31.0784C13.2294 31.1571 13.2864 31.2563 13.3773 31.2563H19.8662C20.0224 31.2563 20.1689 31.1795 20.2573 31.0502L21.4515 29.3082C21.5053 29.2294 21.4489 29.1226 21.3536 29.1226V29.1232Z" fill="#FD7D00"/>
<path d="M20.9006 4.62855C20.9313 4.62855 20.9608 4.64071 20.9832 4.66375C21.6379 5.34087 29.3211 13.2967 30.5032 15.083C30.6856 15.3588 30.7509 15.6916 30.5633 15.9642C29.1221 18.0564 23.2597 26.5473 22.2734 27.9758C22.1851 28.1038 22.0392 28.1806 21.8837 28.1806H14.6536C14.6024 28.1806 14.5755 28.1204 14.6094 28.082C18.7585 23.5047 23.2449 18.5543 25.5445 16.0174C25.7461 15.7946 25.771 15.4638 25.6046 15.2135L20.0456 6.85063C19.9579 6.71815 19.8094 6.63879 19.6507 6.63879L10.9928 6.75719C10.9205 6.75719 10.9109 6.65223 10.9825 6.63943C12.8328 6.32135 17.4427 5.37415 20.8763 4.63047C20.8846 4.62855 20.8929 4.62791 20.9013 4.62791M20.9013 4.39111C20.8763 4.39111 20.8507 4.39367 20.8264 4.39943C17.4254 5.13543 12.7982 6.08775 10.9422 6.40647C10.7893 6.43271 10.6843 6.56903 10.6971 6.72327C10.7105 6.87815 10.8373 6.99463 10.9928 6.99463H10.996L19.652 6.87623C19.7307 6.87623 19.8043 6.91591 19.8478 6.98183L25.4069 15.3447C25.5131 15.5047 25.4977 15.7159 25.3685 15.858C24.0053 17.3614 21.8741 19.7134 19.4997 22.3329L14.4328 27.9226C14.3541 28.009 14.3342 28.1345 14.3816 28.2413C14.4289 28.3482 14.5352 28.4173 14.6523 28.4173H21.8824C22.116 28.4173 22.3349 28.3028 22.4673 28.1102C24.0648 25.7966 29.3832 18.0935 30.7573 16.0986C30.9813 15.7735 30.9595 15.3454 30.6997 14.9524C29.5157 13.163 22.0046 5.38055 21.1521 4.49927C21.0862 4.43079 20.9941 4.39175 20.8993 4.39175L20.9013 4.39111Z" fill="#FD7D00"/>
</svg>
